<svg width="189" height="39" viewBox="0 0 189 39" fill="none" xmlns="http://www.w3.org/2000/svg">
<path d="M60.9835 36.7119C60.4514 37.7631 61.2252 39 62.4149 39H96.7112C97.9009 39 98.6746 37.7631 98.1426 36.7119L80.9944 2.82865C80.4047 1.66332 78.7214 1.66332 78.1316 2.82865L60.9835 36.7119Z" fill="black"/>
<path d="M151.67 36.7119C151.138 37.7631 151.912 39 153.101 39H187.398C188.587 39 189.361 37.7631 188.829 36.7119L171.681 2.82865C171.091 1.66332 169.408 1.66332 168.818 2.82865L151.67 36.7119Z" fill="black"/>
<path d="M20.182 36.1714C19.5922 37.3367 17.9089 37.3367 17.3192 36.1714L0.171018 2.28814C-0.361018 1.23689 0.412742 0 1.60241 0H66.8387C68.0284 0 68.8021 1.23689 68.2701 2.28814L51.1219 36.1714C50.5322 37.3367 48.8489 37.3367 48.2592 36.1714L35.652 11.2607C35.0622 10.0953 33.3789 10.0953 32.7892 11.2607L20.182 36.1714Z" fill="black"/>
<path d="M110.868 36.1714C110.279 37.3367 108.595 37.3367 108.006 36.1714L90.8574 2.28814C90.3254 1.23689 91.0991 0 92.2888 0H157.525C158.715 0 159.489 1.23689 158.957 2.28814L141.808 36.1714C141.219 37.3367 139.535 37.3367 138.946 36.1714L126.338 11.2607C125.749 10.0953 124.065 10.0953 123.476 11.2607L110.868 36.1714Z" fill="black"/>
</svg>
