<svg width="190" height="42" viewBox="0 0 190 42" fill="none" xmlns="http://www.w3.org/2000/svg">
<path d="M77.0552 3.64648C78.1885 1.38049 81.4219 1.38043 82.5552 3.64648L99.4322 37.3994C100.454 39.4438 98.9678 41.8493 96.6822 41.8496H62.9283C60.6425 41.8494 59.156 39.4439 60.1783 37.3994L77.0552 3.64648ZM166.305 3.64648C167.439 1.38049 170.672 1.38043 171.805 3.64648L188.682 37.3994C189.704 39.4439 188.218 41.8493 185.932 41.8496H152.178C149.892 41.8494 148.406 39.4439 149.428 37.3994L166.305 3.64648ZM67.2818 0C69.5677 2.67637e-05 71.054 2.40565 70.0318 4.4502L53.1558 38.2031C52.0226 40.4696 48.788 40.4695 47.6548 38.2031L35.2476 13.3887C35.2394 13.3722 35.2322 13.3646 35.23 13.3623C35.2276 13.3598 35.2257 13.3579 35.2232 13.3564C35.217 13.3528 35.2023 13.3467 35.1802 13.3467C35.1582 13.3467 35.1435 13.3528 35.1372 13.3564C35.1347 13.358 35.1319 13.3597 35.1294 13.3623C35.127 13.3649 35.1208 13.3728 35.1128 13.3887L22.7056 38.2031C21.5724 40.4695 18.3378 40.4695 17.2046 38.2031L0.328649 4.4502C-0.693638 2.40562 0.792754 0 3.07865 0H67.2818ZM156.532 0C158.818 4.28208e-05 160.304 2.40564 159.282 4.4502L142.406 38.2031C141.273 40.4696 138.038 40.4695 136.905 38.2031L124.498 13.3887C124.489 13.3722 124.482 13.3646 124.48 13.3623C124.478 13.3598 124.476 13.3579 124.473 13.3564C124.467 13.3528 124.452 13.3467 124.43 13.3467C124.408 13.3467 124.394 13.3528 124.387 13.3564C124.385 13.358 124.382 13.3597 124.379 13.3623C124.377 13.3649 124.371 13.3727 124.363 13.3887L111.956 38.2031C110.822 40.4696 107.588 40.4695 106.455 38.2031L89.5777 4.4502C88.5556 2.40567 90.0428 0 92.3287 0H156.532ZM79.7622 4.95605C79.7597 4.95757 79.7569 4.95931 79.7544 4.96191C79.7522 4.96428 79.746 4.97188 79.7378 4.98828L62.8619 38.7412C62.8511 38.7627 62.8508 38.773 62.8511 38.7773C62.8516 38.7856 62.8554 38.7992 62.8648 38.8145C62.8742 38.8297 62.885 38.8386 62.8921 38.8428C62.8958 38.8449 62.9044 38.8496 62.9283 38.8496H96.6822C96.7058 38.8495 96.7146 38.8449 96.7183 38.8428C96.7255 38.8386 96.7363 38.8296 96.7456 38.8145C96.755 38.7993 96.7578 38.7856 96.7583 38.7773C96.7586 38.773 96.7593 38.7627 96.7486 38.7412L79.8726 4.98828C79.8644 4.97182 79.8572 4.96425 79.855 4.96191C79.8527 4.95951 79.8506 4.9575 79.8482 4.95605C79.8419 4.95243 79.8271 4.94728 79.8052 4.94727C79.7835 4.94727 79.7686 4.95242 79.7622 4.95605ZM169.012 4.95605C169.01 4.95757 169.007 4.95931 169.004 4.96191C169.002 4.96427 168.996 4.97187 168.988 4.98828L152.112 38.7412C152.101 38.7627 152.101 38.773 152.101 38.7773C152.102 38.7856 152.105 38.7992 152.115 38.8145C152.124 38.8297 152.135 38.8386 152.142 38.8428C152.146 38.8449 152.154 38.8496 152.178 38.8496H185.932C185.956 38.8495 185.965 38.8449 185.968 38.8428C185.975 38.8386 185.986 38.8296 185.996 38.8145C186.005 38.7993 186.008 38.7856 186.008 38.7773C186.009 38.773 186.009 38.7627 185.999 38.7412L169.123 4.98828C169.114 4.97182 169.107 4.96425 169.105 4.96191C169.103 4.95952 169.101 4.9575 169.098 4.95605C169.092 4.95243 169.077 4.94728 169.055 4.94727C169.033 4.94727 169.019 4.95242 169.012 4.95605ZM3.04252 3.00684C3.03543 3.01094 3.02458 3.02011 3.01517 3.03516C3.00569 3.0505 3.00201 3.06499 3.0015 3.07324C3.00124 3.07771 3.00092 3.08764 3.01127 3.1084L19.8882 36.8613C19.8964 36.8776 19.9026 36.8853 19.9048 36.8877C19.9072 36.8902 19.9092 36.8921 19.9117 36.8936C19.9178 36.8972 19.9334 36.9033 19.9556 36.9033C19.9775 36.9032 19.9925 36.8971 19.9986 36.8936C20.001 36.8921 20.003 36.8902 20.0054 36.8877C20.0076 36.8853 20.0138 36.8777 20.022 36.8613L32.4302 12.0469C33.5634 9.78045 36.797 9.78045 37.9302 12.0469L50.3384 36.8613C50.3466 36.8778 50.3528 36.8854 50.355 36.8877C50.3574 36.8903 50.3593 36.8921 50.3619 36.8936C50.3679 36.8972 50.3828 36.9033 50.4048 36.9033C50.427 36.9033 50.4426 36.8972 50.4488 36.8936C50.4512 36.8921 50.4533 36.8902 50.4556 36.8877C50.4579 36.8852 50.4641 36.8774 50.4722 36.8613L67.3492 3.1084C67.3595 3.0877 67.3592 3.07772 67.3589 3.07324C67.3584 3.06498 67.3547 3.0505 67.3453 3.03516C67.3358 3.02007 67.325 3.01094 67.3179 3.00684C67.3141 3.00462 67.3053 3.00001 67.2818 3H3.07865C3.05534 3 3.04642 3.00459 3.04252 3.00684ZM92.2925 3.00684C92.2854 3.01093 92.2746 3.02014 92.2652 3.03516C92.2557 3.0505 92.252 3.06499 92.2515 3.07324C92.2512 3.07769 92.2509 3.08758 92.2613 3.1084L109.138 36.8613C109.146 36.8776 109.153 36.8853 109.155 36.8877C109.157 36.8902 109.159 36.8921 109.162 36.8936C109.168 36.8971 109.183 36.9032 109.205 36.9033C109.227 36.9033 109.242 36.8972 109.249 36.8936C109.251 36.8921 109.253 36.8902 109.255 36.8877C109.258 36.8853 109.264 36.8776 109.272 36.8613L121.68 12.0469C122.813 9.78048 126.047 9.78046 127.18 12.0469L139.588 36.8613C139.597 36.8778 139.603 36.8854 139.605 36.8877C139.607 36.8903 139.609 36.8921 139.612 36.8936C139.618 36.8972 139.633 36.9033 139.655 36.9033C139.677 36.9033 139.691 36.8972 139.698 36.8936C139.7 36.892 139.703 36.8903 139.706 36.8877C139.708 36.8852 139.714 36.8774 139.722 36.8613L156.599 3.1084C156.609 3.08765 156.609 3.07769 156.609 3.07324C156.608 3.06499 156.605 3.0505 156.595 3.03516C156.586 3.02009 156.575 3.01094 156.568 3.00684C156.564 3.00461 156.555 3.00001 156.532 3H92.3287C92.3054 3 92.2964 3.00458 92.2925 3.00684Z" fill="black"/>
</svg>
