<svg width="256" height="256" viewBox="0 0 256 256" fill="none" xmlns="http://www.w3.org/2000/svg">
<path d="M253 128C253 58.9644 197.036 3 128 3C58.9644 3 3 58.9644 3 128C3 197.036 58.9644 253 128 253V256C57.3075 256 0 198.692 0 128C0 57.3075 57.3075 0 128 0C198.692 0 256 57.3075 256 128C256 198.692 198.692 256 128 256V253C197.036 253 253 197.036 253 128Z" fill="black"/>
<path d="M110.055 110.646C111.189 108.38 114.422 108.38 115.555 110.646L132.432 144.399C133.454 146.444 131.968 148.849 129.682 148.85H95.9283C93.6425 148.849 92.156 146.444 93.1783 144.399L110.055 110.646ZM199.305 110.646C200.439 108.38 203.672 108.38 204.805 110.646L221.682 144.399C222.704 146.444 221.218 148.849 218.932 148.85H185.178C182.892 148.849 181.406 146.444 182.428 144.399L199.305 110.646ZM100.282 107C102.568 107 104.054 109.406 103.032 111.45L86.1558 145.203C85.0226 147.47 81.788 147.47 80.6548 145.203L68.2476 120.389C68.2394 120.372 68.2322 120.365 68.23 120.362C68.2276 120.36 68.2257 120.358 68.2232 120.356C68.217 120.353 68.2023 120.347 68.1802 120.347C68.1582 120.347 68.1435 120.353 68.1372 120.356C68.1347 120.358 68.1319 120.36 68.1294 120.362C68.127 120.365 68.1208 120.373 68.1128 120.389L55.7056 145.203C54.5724 147.47 51.3378 147.47 50.2046 145.203L33.3286 111.45C32.3064 109.406 33.7928 107 36.0786 107H100.282ZM189.532 107C191.818 107 193.304 109.406 192.282 111.45L175.406 145.203C174.273 147.47 171.038 147.47 169.905 145.203L157.498 120.389C157.489 120.372 157.482 120.365 157.48 120.362C157.478 120.36 157.476 120.358 157.473 120.356C157.467 120.353 157.452 120.347 157.43 120.347C157.408 120.347 157.394 120.353 157.387 120.356C157.385 120.358 157.382 120.36 157.379 120.362C157.377 120.365 157.371 120.373 157.363 120.389L144.956 145.203C143.822 147.47 140.588 147.47 139.455 145.203L122.578 111.45C121.556 109.406 123.043 107 125.329 107H189.532ZM112.762 111.956C112.76 111.958 112.757 111.959 112.754 111.962C112.752 111.964 112.746 111.972 112.738 111.988L95.8618 145.741C95.8511 145.763 95.8508 145.773 95.8511 145.777C95.8516 145.786 95.8553 145.799 95.8648 145.814C95.8742 145.83 95.885 145.839 95.8921 145.843C95.8958 145.845 95.9044 145.85 95.9283 145.85H129.682C129.706 145.85 129.715 145.845 129.718 145.843C129.725 145.839 129.736 145.83 129.746 145.814C129.755 145.799 129.758 145.786 129.758 145.777C129.759 145.773 129.759 145.763 129.749 145.741L112.873 111.988C112.864 111.972 112.857 111.964 112.855 111.962C112.853 111.96 112.851 111.957 112.848 111.956C112.842 111.952 112.827 111.947 112.805 111.947C112.783 111.947 112.769 111.952 112.762 111.956ZM202.012 111.956C202.01 111.958 202.007 111.959 202.004 111.962C202.002 111.964 201.996 111.972 201.988 111.988L185.112 145.741C185.101 145.763 185.101 145.773 185.101 145.777C185.102 145.786 185.105 145.799 185.115 145.814C185.124 145.83 185.135 145.839 185.142 145.843C185.146 145.845 185.154 145.85 185.178 145.85H218.932C218.956 145.85 218.965 145.845 218.968 145.843C218.975 145.839 218.986 145.83 218.996 145.814C219.005 145.799 219.008 145.786 219.008 145.777C219.009 145.773 219.009 145.763 218.999 145.741L202.123 111.988C202.114 111.972 202.107 111.964 202.105 111.962C202.103 111.96 202.101 111.957 202.098 111.956C202.092 111.952 202.077 111.947 202.055 111.947C202.033 111.947 202.019 111.952 202.012 111.956ZM36.0425 110.007C36.0354 110.011 36.0246 110.02 36.0152 110.035C36.0057 110.051 36.002 110.065 36.0015 110.073C36.0012 110.078 36.0009 110.088 36.0113 110.108L52.8882 143.861C52.8964 143.878 52.9026 143.885 52.9048 143.888C52.9072 143.89 52.9092 143.892 52.9117 143.894C52.9178 143.897 52.9334 143.903 52.9556 143.903C52.9775 143.903 52.9925 143.897 52.9986 143.894C53.001 143.892 53.003 143.89 53.0054 143.888C53.0077 143.885 53.0138 143.878 53.022 143.861L65.4302 119.047C66.5634 116.78 69.797 116.78 70.9302 119.047L83.3384 143.861C83.3466 143.878 83.3528 143.885 83.355 143.888C83.3574 143.89 83.3593 143.892 83.3618 143.894C83.3679 143.897 83.3828 143.903 83.4048 143.903C83.427 143.903 83.4426 143.897 83.4488 143.894C83.4512 143.892 83.4533 143.89 83.4556 143.888C83.4579 143.885 83.4641 143.877 83.4722 143.861L100.349 110.108C100.359 110.088 100.359 110.078 100.359 110.073C100.358 110.065 100.355 110.051 100.345 110.035C100.336 110.02 100.325 110.011 100.318 110.007C100.314 110.005 100.305 110 100.282 110H36.0786C36.0553 110 36.0464 110.005 36.0425 110.007ZM125.293 110.007C125.285 110.011 125.275 110.02 125.265 110.035C125.256 110.051 125.252 110.065 125.252 110.073C125.251 110.078 125.251 110.088 125.261 110.108L142.138 143.861C142.146 143.878 142.153 143.885 142.155 143.888C142.157 143.89 142.159 143.892 142.162 143.894C142.168 143.897 142.183 143.903 142.205 143.903C142.227 143.903 142.242 143.897 142.249 143.894C142.251 143.892 142.253 143.89 142.255 143.888C142.258 143.885 142.264 143.878 142.272 143.861L154.68 119.047C155.813 116.78 159.047 116.78 160.18 119.047L172.588 143.861C172.597 143.878 172.603 143.885 172.605 143.888C172.607 143.89 172.609 143.892 172.612 143.894C172.618 143.897 172.633 143.903 172.655 143.903C172.677 143.903 172.691 143.897 172.698 143.894C172.7 143.892 172.703 143.89 172.706 143.888C172.708 143.885 172.714 143.877 172.722 143.861L189.599 110.108C189.609 110.088 189.609 110.078 189.609 110.073C189.608 110.065 189.605 110.051 189.595 110.035C189.586 110.02 189.575 110.011 189.568 110.007C189.564 110.005 189.555 110 189.532 110H125.329C125.305 110 125.296 110.005 125.293 110.007Z" fill="black"/>
</svg>
